<svg width="160" height="40" viewBox="0 0 160 40" fill="none" xmlns="http://www.w3.org/2000/svg">
  <path d="M20 10C14.477 10 10 14.477 10 20C10 25.523 14.477 30 20 30C25.523 30 30 25.523 30 20C30 14.477 25.523 10 20 10Z" fill="#3CAEA3"/>
  <path d="M20 5C11.716 5 5 11.716 5 20C5 28.284 11.716 35 20 35C28.284 35 35 28.284 35 20C35 11.716 28.284 5 20 5ZM20 30C14.477 30 10 25.523 10 20C10 14.477 14.477 10 20 10C25.523 10 30 14.477 30 20C30 25.523 25.523 30 20 30Z" fill="#0066FF"/>
  <path d="M45 15H50C52.761 15 55 17.239 55 20C55 22.761 52.761 25 50 25H45V15Z" fill="#3CAEA3"/>
  <path d="M45 15V25H50C52.761 25 55 22.761 55 20C55 17.239 52.761 15 50 15H45ZM43 13H50C53.866 13 57 16.134 57 20C57 23.866 53.866 27 50 27H43V13Z" fill="white"/>
  <path d="M60 13H62V27H60V13Z" fill="white"/>
  <path d="M70 13H72L80 27H77.5L76 23.5H66L64.5 27H62L70 13ZM67 21.5H75L71 13.5L67 21.5Z" fill="white"/>
  <path d="M82 13H84V25H92V27H82V13Z" fill="white"/>
  <path d="M95 13H97V25H105V27H95V13Z" fill="white"/>
  <path d="M115 13H117V27H115L107 17V27H105V13H107L115 23V13Z" fill="white"/>
  <path d="M120 13H122V27H120V13Z" fill="white"/>
  <path d="M125 13H127V25H135V27H125V13Z" fill="white"/>
  <path d="M138 13H150V15H145V27H143V15H138V13Z" fill="white"/>
  <path d="M153 15H158C159.105 15 160 15.895 160 17V17C160 18.105 159.105 19 158 19H153V15Z" fill="#FFCC00"/>
  <path d="M153 21H158C159.105 21 160 21.895 160 23V23C160 24.105 159.105 25 158 25H153V21Z" fill="#FFCC00"/>
  <path d="M153 15V19H158C159.105 19 160 18.105 160 17V17C160 15.895 159.105 15 158 15H153ZM153 21V25H158C159.105 25 160 24.105 160 23V23C160 21.895 159.105 21 158 21H153ZM151 13H158C160.209 13 162 14.791 162 17V17C162 18.657 160.931 20.0881 159.437 20.6572C160.931 21.2263 162 22.657 162 24V24C162 26.209 160.209 28 158 28H151V13Z" fill="white"/>
</svg>

