<svg width="600" height="300" viewBox="0 0 600 300" fill="none" xmlns="http://www.w3.org/2000/svg">
  <rect width="600" height="300" fill="#1E293B"/>
  
  <!-- Skyline -->
  <rect x="100" y="150" width="80" height="100" fill="#0F172A"/>
  <rect x="190" y="100" width="40" height="150" fill="#0F172A"/>
  <rect x="240" y="120" width="120" height="130" fill="#0F172A"/>
  <rect x="370" y="80" width="30" height="170" fill="#0F172A"/>
  <rect x="410" y="150" width="90" height="100" fill="#0F172A"/>
  
  <!-- Big Ben -->
  <rect x="300" y="50" width="20" height="200" fill="#0F172A"/>
  <circle cx="310" cy="50" r="10" fill="#0F172A"/>
  
  <!-- Windows -->
  <rect x="120" y="170" width="10" height="10" fill="#3CAEA3" opacity="0.5"/>
  <rect x="140" y="170" width="10" height="10" fill="#3CAEA3" opacity="0.5"/>
  <rect x="160" y="170" width="10" height="10" fill="#3CAEA3" opacity="0.5"/>
  <rect x="120" y="190" width="10" height="10" fill="#3CAEA3" opacity="0.5"/>
  <rect x="140" y="190" width="10" height="10" fill="#3CAEA3" opacity="0.5"/>
  <rect x="160" y="190" width="10" height="10" fill="#3CAEA3" opacity="0.5"/>
  <rect x="120" y="210" width="10" height="10" fill="#3CAEA3" opacity="0.5"/>
  <rect x="140" y="210" width="10" height="10" fill="#3CAEA3" opacity="0.5"/>
  <rect x="160" y="210" width="10" height="10" fill="#3CAEA3" opacity="0.5"/>
  
  <rect x="200" y="120" width="10" height="10" fill="#3CAEA3" opacity="0.5"/>
  <rect x="210" y="120" width="10" height="10" fill="#3CAEA3" opacity="0.5"/>
  <rect x="200" y="140" width="10" height="10" fill="#3CAEA3" opacity="0.5"/>
  <rect x="210" y="140" width="10" height="10" fill="#3CAEA3" opacity="0.5"/>
  <rect x="200" y="160" width="10" height="10" fill="#3CAEA3" opacity="0.5"/>
  <rect x="210" y="160" width="10" height="10" fill="#3CAEA3" opacity="0.5"/>
  <rect x="200" y="180" width="10" height="10" fill="#3CAEA3" opacity="0.5"/>
  <rect x="210" y="180" width="10" height="10" fill="#3CAEA3" opacity="0.5"/>
  <rect x="200" y="200" width="10" height="10" fill="#3CAEA3" opacity="0.5"/>
  <rect x="210" y="200" width="10" height="10" fill="#3CAEA3" opacity="0.5"/>
  <rect x="200" y="220" width="10" height="10" fill="#3CAEA3" opacity="0.5"/>
  <rect x="210" y="220" width="10" height="10" fill="#3CAEA3" opacity="0.5"/>
  
  <!-- Title -->
  <text x="300" y="270" font-family="Arial" font-size="16" fill="white" text-anchor="middle">London Office</text>
</svg>

