<svg width="600" height="300" viewBox="0 0 600 300" fill="none" xmlns="http://www.w3.org/2000/svg">
  <rect width="600" height="300" fill="#1E293B"/>
  
  <!-- Skyline -->
  <rect x="100" y="150" width="50" height="100" fill="#0F172A"/>
  <rect x="160" y="100" width="40" height="150" fill="#0F172A"/>
  <rect x="210" y="50" width="60" height="200" fill="#0F172A"/>
  <rect x="280" y="120" width="40" height="130" fill="#0F172A"/>
  <rect x="330" y="80" width="70" height="170" fill="#0F172A"/>
  <rect x="410" y="150" width="90" height="100" fill="#0F172A"/>
  
  <!-- Marina Bay Sands -->
  <rect x="210" y="50" width="60" height="100" fill="#0F172A"/>
  <rect x="210" y="30" width="60" height="20" fill="#0F172A"/>
  <rect x="190" y="30" width="100" height="10" fill="#0F172A"/>
  
  <!-- Windows -->
  <rect x="110" y="170" width="10" height="10" fill="#3CAEA3" opacity="0.5"/>
  <rect x="130" y="170" width="10" height="10" fill="#3CAEA3" opacity="0.5"/>
  <rect x="110" y="190" width="10" height="10" fill="#3CAEA3" opacity="0.5"/>
  <rect x="130" y="190" width="10" height="10" fill="#3CAEA3" opacity="0.5"/>
  <rect x="110" y="210" width="10" height="10" fill="#3CAEA3" opacity="0.5"/>
  <rect x="130" y="210" width="10" height="10" fill="#3CAEA3" opacity="0.5"/>
  
  <rect x="170" y="120" width="10" height="10" fill="#3CAEA3" opacity="0.5"/>
  <rect x="180" y="120" width="10" height="10" fill="#3CAEA3" opacity="0.5"/>
  <rect x="170" y="140" width="10" height="10" fill="#3CAEA3" opacity="0.5"/>
  <rect x="180" y="140" width="10" height="10" fill="#3CAEA3" opacity="0.5"/>
  <rect x="170" y="160" width="10" height="10" fill="#3CAEA3" opacity="0.5"/>
  <rect x="180" y="160" width="10" height="10" fill="#3CAEA3" opacity="0.5"/>
  <rect x="170" y="180" width="10" height="10" fill="#3CAEA3" opacity="0.5"/>
  <rect x="180" y="180" width="10" height="10" fill="#3CAEA3" opacity="0.5"/>
  <rect x="170" y="200" width="10" height="10" fill="#3CAEA3" opacity="0.5"/>
  <rect x="180" y="200" width="10" height="10" fill="#3CAEA3" opacity="0.5"/>
  <rect x="170" y="220" width="10" height="10" fill="#3CAEA3" opacity="0.5"/>
  <rect x="180" y="220" width="10" height="10" fill="#3CAEA3" opacity="0.5"/>
  
  <!-- Title -->
  <text x="300" y="270" font-family="Arial" font-size="16" fill="white" text-anchor="middle">Singapore Office</text>
</svg>

