<svg width="600" height="300" viewBox="0 0 600 300" fill="none" xmlns="http://www.w3.org/2000/svg">
  <rect width="600" height="300" fill="#1E293B"/>
  
  <!-- Skyline -->
  <rect x="100" y="100" width="50" height="150" fill="#0F172A"/>
  <rect x="160" y="50" width="40" height="200" fill="#0F172A"/>
  <rect x="210" y="120" width="60" height="130" fill="#0F172A"/>
  <rect x="280" y="80" width="30" height="170" fill="#0F172A"/>
  <rect x="320" y="150" width="70" height="100" fill="#0F172A"/>
  <rect x="400" y="30" width="40" height="220" fill="#0F172A"/>
  <rect x="450" y="100" width="50" height="150" fill="#0F172A"/>
  
  <!-- Windows -->
  <rect x="110" y="120" width="10" height="10" fill="#3CAEA3" opacity="0.5"/>
  <rect x="130" y="120" width="10" height="10" fill="#3CAEA3" opacity="0.5"/>
  <rect x="110" y="140" width="10" height="10" fill="#3CAEA3" opacity="0.5"/>
  <rect x="130" y="140" width="10" height="10" fill="#3CAEA3" opacity="0.5"/>
  <rect x="110" y="160" width="10" height="10" fill="#3CAEA3" opacity="0.5"/>
  <rect x="130" y="160" width="10" height="10" fill="#3CAEA3" opacity="0.5"/>
  <rect x="110" y="180" width="10" height="10" fill="#3CAEA3" opacity="0.5"/>
  <rect x="130" y="180" width="10" height="10" fill="#3CAEA3" opacity="0.5"/>
  <rect x="110" y="200" width="10" height="10" fill="#3CAEA3" opacity="0.5"/>
  <rect x="130" y="200" width="10" height="10" fill="#3CAEA3" opacity="0.5"/>
  
  <rect x="170" y="70" width="10" height="10" fill="#3CAEA3" opacity="0.5"/>
  <rect x="180" y="70" width="10" height="10" fill="#3CAEA3" opacity="0.5"/>
  <rect x="170" y="90" width="10" height="10" fill="#3CAEA3" opacity="0.5"/>
  <rect x="180" y="90" width="10" height="10" fill="#3CAEA3" opacity="0.5"/>
  <rect x="170" y="110" width="10" height="10" fill="#3CAEA3" opacity="0.5"/>
  <rect x="180" y="110" width="10" height="10" fill="#3CAEA3" opacity="0.5"/>
  <rect x="170" y="130" width="10" height="10" fill="#3CAEA3" opacity="0.5"/>
  <rect x="180" y="130" width="10" height="10" fill="#3CAEA3" opacity="0.5"/>
  <rect x="170" y="150" width="10" height="10" fill="#3CAEA3" opacity="0.5"/>
  <rect x="180" y="150" width="10" height="10" fill="#3CAEA3" opacity="0.5"/>
  <rect x="170" y="170" width="10" height="10" fill="#3CAEA3" opacity="0.5"/>
  <rect x="180" y="170" width="10" height="10" fill="#3CAEA3" opacity="0.5"/>
  <rect x="170" y="190" width="10" height="10" fill="#3CAEA3" opacity="0.5"/>
  <rect x="180" y="190" width="10" height="10" fill="#3CAEA3" opacity="0.5"/>
  <rect x="170" y="210" width="10" height="10" fill="#3CAEA3" opacity="0.5"/>
  <rect x="180" y="210" width="10" height="10" fill="#3CAEA3" opacity="0.5"/>
  
  <!-- Title -->
  <text x="300" y="270" font-family="Arial" font-size="16" fill="white" text-anchor="middle">New York Office</text>
</svg>

