<svg width="500" height="400" viewBox="0 0 500 400" fill="none" xmlns="http://www.w3.org/2000/svg">
  <!-- Background Grid -->
  <path d="M50 50H450M50 100H450M50 150H450M50 200H450M50 250H450M50 300H450M50 350H450M100 50V350M150 50V350M200 50V350M250 50V350M300 50V350M350 50V350M400 50V350M450 50V350" stroke="#1E293B" stroke-width="1"/>
  
  <!-- Server Rack -->
  <rect x="150" y="100" width="200" height="250" rx="5" fill="#0F172A" stroke="#334155" stroke-width="2"/>
  
  <!-- Server Units -->
  <rect x="160" y="120" width="180" height="40" rx="3" fill="#1E293B" stroke="#3CAEA3" stroke-width="1"/>
  <rect x="170" y="130" width="10" height="10" rx="2" fill="#3CAEA3"/>
  <rect x="170" y="145" width="10" height="5" rx="1" fill="#3CAEA3"/>
  <circle cx="320" cy="140" r="5" fill="#22C55E"/>
  
  <rect x="160" y="170" width="180" height="40" rx="3" fill="#1E293B" stroke="#0066FF" stroke-width="1"/>
  <rect x="170" y="180" width="10" height="10" rx="2" fill="#0066FF"/>
  <rect x="170" y="195" width="10" height="5" rx="1" fill="#0066FF"/>
  <circle cx="320" cy="190" r="5" fill="#22C55E"/>
  
  <rect x="160" y="220" width="180" height="40" rx="3" fill="#1E293B" stroke="#3CAEA3" stroke-width="1"/>
  <rect x="170" y="230" width="10" height="10" rx="2" fill="#3CAEA3"/>
  <rect x="170" y="245" width="10" height="5" rx="1" fill="#3CAEA3"/>
  <circle cx="320" cy="240" r="5" fill="#22C55E"/>
  
  <rect x="160" y="270" width="180" height="40" rx="3" fill="#1E293B" stroke="#0066FF" stroke-width="1"/>
  <rect x="170" y="280" width="10" height="10" rx="2" fill="#0066FF"/>
  <rect x="170" y="295" width="10" height="5" rx="1" fill="#0066FF"/>
  <circle cx="320" cy="290" r="5" fill="#22C55E"/>
  
  <!-- Server Connections -->
  <path d="M340 140C380 140 380 190 340 190" stroke="#3CAEA3" stroke-width="1"/>
  <path d="M340 240C380 240 380 290 340 290" stroke="#0066FF" stroke-width="1"/>
  
  <!-- Cloud Elements -->
  <circle cx="100" cy="80" r="20" fill="#0F172A" stroke="#3CAEA3" stroke-width="1"/>
  <circle cx="400" cy="80" r="15" fill="#0F172A" stroke="#0066FF" stroke-width="1"/>
  <circle cx="100" cy="320" r="15" fill="#0F172A" stroke="#0066FF" stroke-width="1"/>
  <circle cx="400" cy="320" r="20" fill="#0F172A" stroke="#3CAEA3" stroke-width="1"/>
  
  <!-- Connection Lines -->
  <path d="M120 80H150" stroke="#3CAEA3" stroke-width="1"/>
  <path d="M385 80H350" stroke="#0066FF" stroke-width="1"/>
  <path d="M115 320H150" stroke="#0066FF" stroke-width="1"/>
  <path d="M380 320H350" stroke="#3CAEA3" stroke-width="1"/>
  
  <!-- Glow Effects -->
  <circle cx="320" cy="140" r="8" fill="#22C55E" opacity="0.3"/>
  <circle cx="320" cy="190" r="8" fill="#22C55E" opacity="0.3"/>
  <circle cx="320" cy="240" r="8" fill="#22C55E" opacity="0.3"/>
  <circle cx="320" cy="290" r="8" fill="#22C55E" opacity="0.3"/>
</svg>

