<svg width="600" height="300" viewBox="0 0 600 300" fill="none" xmlns="http://www.w3.org/2000/svg">
  <rect width="600" height="300" fill="#1E293B"/>
  
  <!-- Server -->
  <rect x="200" y="50" width="200" height="200" rx="5" fill="#0F172A" stroke="#334155" stroke-width="2"/>
  
  <!-- Performance Indicators -->
  <rect x="220" y="80" width="160" height="20" rx="3" fill="#1E293B"/>
  <rect x="220" y="80" width="120" height="20" rx="3" fill="#3CAEA3"/>
  
  <rect x="220" y="110" width="160" height="20" rx="3" fill="#1E293B"/>
  <rect x="220" y="110" width="80" height="20" rx="3" fill="#3CAEA3"/>
  
  <rect x="220" y="140" width="160" height="20" rx="3" fill="#1E293B"/>
  <rect x="220" y="140" width="140" height="20" rx="3" fill="#3CAEA3"/>
  
  <rect x="220" y="170" width="160" height="20" rx="3" fill="#1E293B"/>
  <rect x="220" y="170" width="100" height="20" rx="3" fill="#3CAEA3"/>
  
  <rect x="220" y="200" width="160" height="20" rx="3" fill="#1E293B"/>
  <rect x="220" y="200" width="130" height="20" rx="3" fill="#3CAEA3"/>
  
  <!-- Optimization Arrows -->
  <path d="M150,100 L190,100" stroke="#0066FF" stroke-width="2" marker-end="url(#arrowhead)"/>
  <path d="M150,150 L190,150" stroke="#0066FF" stroke-width="2" marker-end="url(#arrowhead)"/>
  <path d="M150,200 L190,200" stroke="#0066FF" stroke-width="2" marker-end="url(#arrowhead)"/>
  
  <path d="M410,100 L450,100" stroke="#0066FF" stroke-width="2" marker-end="url(#arrowhead)"/>
  <path d="M410,150 L450,150" stroke="#0066FF" stroke-width="2" marker-end="url(#arrowhead)"/>
  <path d="M410,200 L450,200" stroke="#0066FF" stroke-width="2" marker-end="url(#arrowhead)"/>
  
  <!-- Title -->
  <text x="300" y="270" font-family="Arial" font-size="16" fill="white" text-anchor="middle">Optimize Your VDS</text>
  
  <!-- Arrowhead Marker -->
  <defs>
    <marker id="arrowhead" markerWidth="10" markerHeight="7" refX="0" refY="3.5" orient="auto">
      <polygon points="0 0, 10 3.5, 0 7" fill="#0066FF"/>
    </marker>
  </defs>
</svg>

