<svg width="500" height="400" viewBox="0 0 500 400" fill="none" xmlns="http://www.w3.org/2000/svg">
  <rect width="500" height="400" fill="none"/>
  
  <!-- Office Background -->
  <rect x="50" y="100" width="400" height="200" rx="5" fill="#0F172A" stroke="#334155" stroke-width="2"/>
  
  <!-- Desks -->
  <rect x="100" y="150" width="100" height="50" rx="3" fill="#1E293B" stroke="#3CAEA3" stroke-width="1"/>
  <rect x="300" y="150" width="100" height="50" rx="3" fill="#1E293B" stroke="#3CAEA3" stroke-width="1"/>
  <rect x="100" y="250" width="100" height="50" rx="3" fill="#1E293B" stroke="#3CAEA3" stroke-width="1"/>
  <rect x="300" y="250" width="100" height="50" rx="3" fill="#1E293B" stroke="#3CAEA3" stroke-width="1"/>
  
  <!-- People -->
  <circle cx="150" cy="130" r="15" fill="#334155"/>
  <circle cx="350" cy="130" r="15" fill="#334155"/>
  <circle cx="150" cy="230" r="15" fill="#334155"/>
  <circle cx="350" cy="230" r="15" fill="#334155"/>
  
  <!-- Computers -->
  <rect x="125" y="160" width="50" height="30" rx="2" fill="#0F172A" stroke="#0066FF" stroke-width="1"/>
  <rect x="325" y="160" width="50" height="30" rx="2" fill="#0F172A" stroke="#0066FF" stroke-width="1"/>
  <rect x="125" y="260" width="50" height="30" rx="2" fill="#0F172A" stroke="#0066FF" stroke-width="1"/>
  <rect x="325" y="260" width="50" height="30" rx="2" fill="#0F172A" stroke="#0066FF" stroke-width="1"/>
  
  <!-- Connection Lines -->
  <path d="M175,175 L325,175" stroke="#3CAEA3" stroke-width="1" stroke-dasharray="5,5"/>
  <path d="M175,275 L325,275" stroke="#3CAEA3" stroke-width="1" stroke-dasharray="5,5"/>
  <path d="M150,200 L150,250" stroke="#3CAEA3" stroke-width="1" stroke-dasharray="5,5"/>
  <path d="M350,200 L350,250" stroke="#3CAEA3" stroke-width="1" stroke-dasharray="5,5"/>
  
  <!-- Title -->
  <text x="250" y="350" font-family="Arial" font-size="16" fill="white" text-anchor="middle">Collaborative Team Environment</text>
</svg>

